HIERARCHY
ROOT Hips
{
	OFFSET -0.179506 -22.333345 2.821913
	CHANNELS 6 Xposition Yposition Zposition Zrotation Yrotation Xrotation 
	JOINT LeftUpLeg
	{
		OFFSET 6.951974 -9.140623 -0.681533
		CHANNELS 3 Zrotation Yrotation Xrotation
		JOINT LeftLeg
		{
			OFFSET 3.427654 -37.519855 -0.449580
			CHANNELS 3 Zrotation Yrotation Xrotation
			JOINT LeftFoot
			{
				OFFSET -1.359570 -39.796059 -4.369333
				CHANNELS 3 Zrotation Yrotation Xrotation
				JOINT LeftToe
				{
					OFFSET 2.635814 -5.579078 11.928840
					CHANNELS 3 Zrotation Yrotation Xrotation
					End Site
					{
						OFFSET 0.000000 0.000000 0.000000
					}
				}
			}
		}
	}
	JOINT RightUpLeg
	{
		OFFSET -6.767048 -9.052170 -0.431982
		CHANNELS 3 Zrotation Yrotation Xrotation
		JOINT RightLeg
		{
			OFFSET -3.829005 -38.256897 -0.885003
			CHANNELS 3 Zrotation Yrotation Xrotation
			JOINT RightFoot
			{
				OFFSET 1.577377 -39.841461 -4.231180
				CHANNELS 3 Zrotation Yrotation Xrotation
				JOINT RightToe
				{
					OFFSET -2.537174 -4.814398 12.334795
					CHANNELS 3 Zrotation Yrotation Xrotation
					End Site
					{
						OFFSET 0.000000 0.000000 0.000000
					}
				}
			}
		}
	}
	JOINT Spine
	{
		OFFSET -0.253288 10.896323 -2.669631
		CHANNELS 3 Zrotation Yrotation Xrotation
		JOINT Spine1
		{
			OFFSET 0.548704 13.518043 0.109247
			CHANNELS 3 Zrotation Yrotation Xrotation
			JOINT Spine2
			{
				OFFSET 0.145701 5.292222 2.542457
				CHANNELS 3 Zrotation Yrotation Xrotation
				JOINT Neck
				{
					OFFSET -0.277840 21.387037 -4.285703
					CHANNELS 3 Zrotation Yrotation Xrotation
					JOINT Head
					{
						OFFSET 0.515184 6.496960 5.134897
						CHANNELS 3 Zrotation Yrotation Xrotation
						End Site
						{
							OFFSET 0.000000 0.000000 0.000000
						}
					}
				}
				JOINT LeftShoulder
				{
					OFFSET 7.884473 12.174932 -3.408961
					CHANNELS 3 Zrotation Yrotation Xrotation
					JOINT LeftArm
					{
						OFFSET 9.097692 3.046888 -0.886815
						CHANNELS 3 Zrotation Yrotation Xrotation
						JOINT LeftForeArm
						{
							OFFSET 25.961220 -1.277207 -2.745643
							CHANNELS 3 Zrotation Yrotation Xrotation
							JOINT LeftHand
							{
								OFFSET 24.923361 0.898606 -0.117091
								CHANNELS 3 Zrotation Yrotation Xrotation
								End Site
								{
									OFFSET 0.000000 0.000000 0.000000
								}
							}
						}
					}
				}
				JOINT RightShoulder
				{
					OFFSET -8.175920 11.883285 -3.861528
					CHANNELS 3 Zrotation Yrotation Xrotation
					JOINT RightArm
					{
						OFFSET -9.601238 3.255117 -0.914307
						CHANNELS 3 Zrotation Yrotation Xrotation
						JOINT RightForeArm
						{
							OFFSET -25.374195 -1.332924 -2.140099
							CHANNELS 3 Zrotation Yrotation Xrotation
							JOINT RightHand
							{
								OFFSET -25.529810 0.777228 -0.555919
								CHANNELS 3 Zrotation Yrotation Xrotation
								End Site
								{
									OFFSET 0.000000 0.000000 0.000000
								}
							}
						}
					}
				}
			}
		}
	}
}
MOTION
Frames: 12
Frame Time: 0.033333
-35.817837 34.011272 96.156189 175.682765 -0.855896 91.882806 -3.301533 -3.770675 3.609018 2.691003 -12.106669 -4.803453 4.844934 15.382917 -14.254356 nan nan nan 0.932838 -0.122278 2.106925 -1.513071 3.337272 -7.739613 5.138012 -11.240824 -0.743009 nan nan nan -2.872038 2.169711 -0.061310 2.817646 -2.719119 2.531186 -0.024998 0.106798 -1.367777 -0.070680 -3.250886 -6.464462 2.972197 -0.107861 -1.864787 -18.274416 2.201335 -0.855819 -65.318201 -6.036446 21.179370 7.349939 -21.577094 6.797011 -18.150072 -3.762192 8.260272 20.352918 0.773179 -1.897713 60.801284 4.615388 17.912367 -6.717671 25.663336 8.612492 16.321455 1.876855 2.091636 
-35.798920 34.037479 96.151138 175.705765 -0.762790 91.901879 -3.132779 -3.673637 3.474184 2.568145 -11.978134 -4.564431 4.850648 15.510536 -14.467326 nan nan nan 1.096586 -0.086920 2.132060 -1.558065 3.300815 -7.807728 5.071043 -11.365336 -0.602231 nan nan nan -2.700152 2.148002 -0.164171 2.778458 -2.741687 2.560968 -0.070910 0.110522 -1.321486 -0.187467 -3.393852 -6.149367 2.890617 -0.208486 -2.063651 -18.294321 2.117920 -0.799952 -65.203249 -5.995579 21.055923 7.254989 -21.699188 6.962871 -18.048207 -3.755202 8.185040 20.164199 0.870465 -1.882074 60.912153 4.600777 17.743157 -6.461679 25.542447 8.856169 16.185873 1.878013 2.012304 
-35.794983 34.052849 96.098221 175.731013 -0.758740 91.792971 -3.191571 -3.910155 3.734861 2.677412 -12.652460 -4.952297 4.491017 15.517397 -13.882596 nan nan nan 1.077920 0.088856 2.340609 -1.503298 3.211594 -8.035739 5.002209 -11.430864 -0.438265 nan nan nan -2.768714 2.137032 0.528555 2.842475 -2.666570 1.160593 0.069868 0.236666 -0.453963 -0.856198 -4.134403 -5.651635 3.463479 0.059362 -2.775683 -18.250350 1.504854 -1.150451 -65.723683 -5.761437 21.821154 4.840729 -19.206311 2.840186 -7.113828 -11.548394 -4.468596 19.768663 1.075878 -3.105385 60.811190 3.729630 18.183827 -4.907612 24.921602 8.971317 7.750824 5.191592 -0.400661 
-35.781166 34.062447 96.022110 175.970054 -0.540777 92.145243 -2.916950 -4.303150 3.487794 3.258845 -11.658754 -6.676889 2.364575 12.511922 -0.314441 nan nan nan 1.300599 0.509257 2.137446 -1.365498 2.737759 -8.272932 3.939604 -11.607396 -0.221903 nan nan nan -2.136778 2.249127 0.954722 2.227806 -2.203605 -0.130791 0.377017 0.892649 -0.040837 -1.864765 -5.685544 -5.283906 4.131899 -0.449218 -3.922721 -18.148732 -0.741138 -0.879189 -65.524297 -4.880720 21.759004 4.716385 -19.204748 3.957092 -4.977907 -14.217148 -9.479130 18.859716 0.280671 -5.247091 61.729382 1.109206 16.795346 -4.503989 25.513857 10.083699 8.518033 4.849377 1.013360 
-35.970737 34.191277 96.010620 176.706301 -0.783281 92.065901 -3.499392 -5.217320 3.699718 3.640854 -11.313036 -6.729181 2.376838 12.246477 -0.182186 nan nan nan 0.667170 0.328402 2.732513 -0.947551 1.943869 -8.945471 4.239469 -11.541077 -0.106298 nan nan nan -1.964409 2.220636 0.736347 2.048308 -2.700029 -0.397511 0.265577 0.688640 0.471899 -2.294750 -5.587779 -5.523989 4.616799 -0.434162 -3.457770 -17.613113 -1.607217 -1.303781 -66.354032 -4.498692 21.065356 6.769931 -18.062782 -2.677685 -9.666564 -20.991262 -21.493307 18.458036 0.736892 -6.152385 62.317109 -0.031061 16.959176 -5.681453 25.219476 10.042803 13.338782 5.154270 1.095383 
-36.039558 34.192513 96.011963 176.780786 -0.867195 92.058065 -3.681819 -5.375823 3.652381 3.643121 -11.177642 -6.595371 2.445891 12.269594 -0.191699 nan nan nan 0.477466 0.209800 2.720486 -0.896111 1.793354 -9.019865 4.264509 -11.537756 0.121822 nan nan nan -1.914174 2.204371 0.830907 1.999174 -2.823634 -0.608906 0.249488 0.562095 0.650451 -2.399993 -5.554347 -5.545509 4.736485 -0.236537 -3.537285 -17.700404 -1.514383 -1.455008 -66.384297 -4.441673 20.940070 7.024496 -17.944020 -2.698257 -11.321574 -20.928809 -21.488898 18.468019 0.876304 -5.878808 62.255806 0.176344 16.929318 -5.911668 25.154790 10.150743 14.199803 4.787060 1.720180 
-36.073803 34.180382 96.005814 176.841850 -0.915547 92.159841 -3.767093 -5.529934 3.435219 3.617078 -11.023841 -6.388831 2.462689 12.306119 -0.271721 nan nan nan 0.405039 0.243315 2.599536 -0.927260 1.749133 -9.059101 4.418548 -11.545649 0.233444 nan nan nan -1.926089 2.204198 0.886900 1.996030 -2.920454 -0.854923 0.251543 0.482426 0.737519 -2.478141 -5.618885 -5.532525 4.866178 -0.096194 -3.564708 -17.774849 -1.373436 -1.553670 -66.394709 -4.424657 20.882036 7.082878 -17.862735 -2.657772 -11.893634 -20.780628 -21.428800 18.458212 0.864731 -5.695767 62.257660 0.348176 16.930830 -6.010123 25.064407 10.245713 14.224207 4.689458 2.039562 
-36.069042 34.161018 96.001503 176.838806 -0.913506 92.305183 -3.752249 -5.606777 3.189168 3.603323 -10.898760 -6.237300 2.426308 12.269714 -0.346100 nan nan nan 0.429337 0.265647 2.383276 -0.984434 1.720656 -8.975565 4.572216 -11.496823 0.193425 nan nan nan -1.938973 2.233465 0.828391 2.005069 -2.957432 -0.937530 0.260198 0.462658 0.700466 -2.540145 -5.638763 -5.495282 4.943035 -0.117664 -3.528017 -17.831311 -1.354085 -1.607124 -66.370397 -4.379126 20.897327 7.074891 -17.771121 -2.694208 -11.806661 -20.938431 -21.517545 18.427998 0.889480 -5.642431 62.306708 0.328630 16.951877 -6.071291 25.007314 10.220900 14.054075 4.847689 1.992717 
-36.067360 34.175652 95.988647 176.845888 -0.858739 92.281904 -3.700099 -5.552552 3.219342 3.855580 -10.981735 -6.104714 1.942466 12.028524 -0.584668 nan nan nan 0.493173 0.254674 2.404005 -0.992470 1.726653 -8.929078 4.565675 -11.584186 -0.007998 nan nan nan -1.859995 2.204807 0.893043 1.983367 -2.943513 -1.098118 0.294488 0.535914 0.870619 -2.615722 -5.735332 -5.489881 5.000086 -0.104058 -3.610905 -17.891642 -1.625723 -1.669549 -66.336925 -4.225838 20.909644 7.126244 -17.712395 -2.479725 -11.643258 -21.521781 -22.199217 18.289160 0.928362 -5.969838 62.455009 -0.017736 16.752520 -6.132045 25.017347 10.420435 14.547041 4.909461 2.059022 
-36.072941 34.204666 95.979836 176.828708 -0.862072 92.237111 -3.721585 -5.476622 3.302705 3.879175 -11.003223 -6.128434 1.875096 12.025888 -0.593317 nan nan nan 0.471172 0.214935 2.460978 -0.958650 1.765849 -8.889642 4.432043 -11.602018 -0.128994 nan nan nan -1.890112 2.202060 0.924777 1.998560 -2.912746 -1.120929 0.356553 0.506322 0.931213 -2.580619 -5.846407 -5.475276 4.920710 -0.007828 -3.676827 -17.888939 -1.679118 -1.652360 -66.392037 -4.225405 20.899380 7.150334 -17.761431 -2.570310 -11.815612 -21.357748 -22.240366 18.159513 0.927508 -6.082336 62.541323 -0.121454 16.781962 -6.171845 25.041538 10.372968 14.978352 4.785402 1.845406 
-36.067776 34.220310 95.977219 176.829136 -0.867061 92.274202 -3.697876 -5.448046 3.253298 3.844919 -11.004822 -6.085656 1.833480 11.988583 -0.635833 nan nan nan 0.474172 0.203034 2.418872 -0.967670 1.750167 -8.856037 4.429797 -11.560938 -0.126880 nan nan nan -1.971524 2.223189 0.854810 2.048204 -2.883029 -1.098083 0.424352 0.446319 0.944937 -2.585295 -5.906613 -5.460845 4.871149 0.036867 -3.702114 -17.862668 -1.696864 -1.599940 -66.483714 -4.272723 20.906145 7.228842 -17.815243 -2.721774 -12.088587 -21.041348 -22.051343 18.114600 0.900626 -6.055277 62.546422 -0.115997 16.820597 -6.229386 25.100303 10.279552 15.090283 4.683861 1.693492 
-36.068840 34.247604 95.973045 176.783993 -0.905169 92.246841 -3.749244 -5.402488 3.318922 3.850894 -11.034001 -6.096356 1.830992 11.947311 -0.667253 nan nan nan 0.420665 0.178090 2.481091 -0.969289 1.818541 -8.886599 4.374712 -11.517260 -0.108877 nan nan nan -1.972298 2.197681 0.841232 2.024030 -2.886411 -1.043973 0.393032 0.507344 0.957290 -2.579546 -5.894009 -5.496514 4.845364 -0.001430 -3.706667 -17.815151 -1.712967 -1.603662 -66.496413 -4.199350 20.937091 7.326501 -17.910291 -2.677122 -12.173477 -20.991367 -22.065647 18.097081 0.912091 -6.089027 62.612430 -0.178114 16.860713 -6.336818 25.139969 10.204813 14.989093 4.684717 1.637414 
